# xmcd
#
# Track frame offsets: 
#        300
#        17037
#        51229
#        70659
#        88017
#        105737
#        123488
#        143531
#        164277
#        184048
#        205464
#
# Disc length: 3140 seconds
#
# Revision: 1
# Processed by: cddbd v1.5.2PL0 Copyright (c) Steve Scherf et al.
# Submitted via: ExactAudioCopy v1.0b1
#
DISCID=970c400b
DTITLE=Blues Moblie Band - Out in The Blue
DYEAR=1995
DGENRE=
TTITLE0=What I do
TTITLE1=She's gone
TTITLE2=I'm going home
TTITLE3=I can't stand it
TTITLE4=Try hard
TTITLE5=Leave this town
TTITLE6=I've got dreams to remember
TTITLE7=Leave me alone
TTITLE8=Tell me why
TTITLE9=Helpless without you
TTITLE10=Too late
EXTD=
EXTT0=
EXTT1=
EXTT2=
EXTT3=
EXTT4=
EXTT5=
EXTT6=
EXTT7=
EXTT8=
EXTT9=
EXTT10=
PLAYORDER=
